<?xml version="1.0" encoding="UTF-8" standalone="no"?>
<svg
   xmlns:dc="http://purl.org/dc/elements/1.1/"
   xmlns:cc="http://creativecommons.org/ns#"
   xmlns:rdf="http://www.w3.org/1999/02/22-rdf-syntax-ns#"
   xmlns:svg="http://www.w3.org/2000/svg"
   xmlns="http://www.w3.org/2000/svg"
   xmlns:sodipodi="http://sodipodi.sourceforge.net/DTD/sodipodi-0.dtd"
   xmlns:inkscape="http://www.inkscape.org/namespaces/inkscape"
   aria-hidden="true"
   focusable="false"
   data-prefix="fab"
   data-icon="twitter"
   class="svg-inline--fa fa-twitter fa-w-16"
   role="img"
   viewBox="0 0 863.66235 700.46002"
   version="1.1"
   id="svg4"
   sodipodi:docname="privacy.svg"
   inkscape:version="1.0.1 (3bc2e813f5, 2020-09-07, custom)"
   width="863.66235"
   height="700.46002">
  <metadata
     id="metadata10">
    <rdf:RDF>
      <cc:Work
         rdf:about="">
        <dc:format>image/svg+xml</dc:format>
        <dc:type
           rdf:resource="http://purl.org/dc/dcmitype/StillImage" />
        <dc:title />
      </cc:Work>
    </rdf:RDF>
  </metadata>
  <defs
     id="defs8" />
  <sodipodi:namedview
     pagecolor="#ffffff"
     bordercolor="#666666"
     borderopacity="1"
     objecttolerance="10"
     gridtolerance="10"
     guidetolerance="10"
     inkscape:pageopacity="0"
     inkscape:pageshadow="2"
     inkscape:window-width="1920"
     inkscape:window-height="1036"
     id="namedview6"
     showgrid="true"
     inkscape:snap-global="false"
     inkscape:zoom="0.91121936"
     inkscape:cx="361.27401"
     inkscape:cy="364.23776"
     inkscape:window-x="1963"
     inkscape:window-y="20"
     inkscape:window-maximized="0"
     inkscape:current-layer="svg4"
     inkscape:document-rotation="0">
    <inkscape:grid
       type="xygrid"
       id="grid131"
       originx="173.67455"
       originy="84.622289" />
  </sodipodi:namedview>
  <path
     fill="currentColor"
     d="m 265.1699,549.45098 13.06422,-33.68597 c 2.18646,-5.65019 -2.0225,-11.67708 -8.19931,-11.67708 h -31.97727 c 6.01282,-10.17037 9.72984,-21.84745 9.72984,-34.43933 v -0.16143 c 21.4275,-4.19729 34.98367,-10.27799 34.98367,-17.05823 0,-7.15693 -14.92271,-13.50669 -38.31807,-17.75779 -5.0289,-17.65015 -14.75873,-35.40794 -22.19277,-44.55588 -5.19289,-6.40356 -14.15746,-8.39457 -21.59148,-4.73541 l -15.08672,7.42599 c -4.91958,2.42151 -10.71376,2.42151 -15.63335,0 l -15.08671,-7.42599 c -7.43402,-3.65916 -16.39859,-1.66815 -21.59149,4.73541 -7.37937,9.14794 -17.16387,26.90573 -22.19277,44.55588 -23.340682,4.2511 -38.263427,10.60086 -38.263427,17.75779 0,6.78024 13.556185,12.86094 34.983697,17.05823 v 0.16143 c 0,12.59188 3.71702,24.26896 9.72984,34.43933 H 86.097138 c -6.286125,0 -10.495085,6.29594 -8.035315,11.99995 l 14.102795,32.39451 c -21.919445,12.53805 -36.842185,35.62316 -36.842185,62.36746 v 24.10753 c 0,13.29143 10.98707,24.10753 24.48858,24.10753 H 275.71966 c 13.50151,0 24.48858,-10.8161 24.48858,-24.10753 v -24.10753 c 0,-26.04475 -14.10279,-48.64555 -35.03834,-61.39887 z m -113.64234,92.39427 -22.73939,-103.31799 27.11237,17.21965 13.11887,21.5246 z m 52.47555,0 -17.49185,-64.57374 13.11888,-21.5246 27.11236,-17.21965 z m 22.79405,-160.62719 c -2.13181,6.40356 -3.82634,13.23761 -9.01923,17.97303 -5.52086,5.00445 -26.23776,12.05376 -34.98368,-13.45287 -1.53054,-4.52016 -8.41796,-4.52016 -10.00316,0 -9.29255,27.01335 -30.61073,17.43492 -34.98368,13.45287 -5.19289,-4.73542 -6.94208,-11.56947 -9.01924,-17.97303 -0.43729,-1.34528 -3.44371,-3.06725 -3.44371,-3.12107 v -5.81162 c 15.46936,1.93721 33.34384,3.12105 52.47554,3.12105 19.1317,0 37.00618,-1.13003 52.47553,-3.12105 v 5.81162 c -0.0548,0.0538 -3.06107,1.72197 -3.49837,3.12107 z"
     id="path93"
     style="fill:#2aa3b4;fill-opacity:1;stroke-width:0.54235" />
  <path
     fill="currentColor"
     d="m 748.97542,154.74718 c 0.0408,0.5702 0.0408,1.14053 0.0408,1.71073 0,17.39187 -13.23736,37.43139 -37.43138,37.43139 -7.45373,0 -14.37789,-2.15881 -20.20238,-5.90586 1.05903,0.12211 2.07719,0.16286 3.17697,0.16286 6.15022,0 11.81185,-2.0772 16.33297,-5.62077 -5.78376,-0.12224 -10.63071,-3.91016 -12.30069,-9.12371 0.81468,0.12211 1.62923,0.20361 2.48466,0.20361 1.18115,0 2.36242,-0.16299 3.46207,-0.44797 -6.02814,-1.22201 -10.54938,-6.51693 -10.54938,-12.91163 v -0.16286 c 1.75135,0.97754 3.78805,1.58849 5.94662,1.66986 -3.54357,-2.36243 -5.86512,-6.3947 -5.86512,-10.95656 0,-2.44379 0.65157,-4.68397 1.7921,-6.63905 6.47618,7.98319 16.21084,13.19661 27.12653,13.76694 -0.20362,-0.97754 -0.32585,-1.99571 -0.32585,-3.01399 0,-7.25013 5.86524,-13.15599 13.15598,-13.15599 3.78793,0 7.20926,1.58849 9.61242,4.15452 2.97324,-0.57021 5.82437,-1.66999 8.34978,-3.17698 -0.97767,3.05486 -3.05486,5.62089 -5.78375,7.25 2.64752,-0.28498 5.21355,-1.01829 7.57585,-2.03645 -1.79185,2.60665 -4.03215,4.9282 -6.59818,6.80191 z"
     id="path2"
     style="fill:#2aa3b4;fill-opacity:1;stroke-width:0.125374" />
  <path
     fill="currentColor"
     d="m 682.65462,80.152206 c 0.0408,0.5702 0.0408,1.14052 0.0408,1.71072 0,17.391869 -13.23736,37.431384 -37.43139,37.431384 -7.45373,0 -14.37788,-2.15881 -20.20238,-5.90587 1.05903,0.12212 2.0772,0.16286 3.17697,0.16286 6.15023,0 11.81186,-2.07719 16.33297,-5.62076 -5.78375,-0.12224 -10.63071,-3.91016 -12.30069,-9.123705 0.81469,0.12211 1.62924,0.2036 2.48467,0.2036 1.18114,0 2.36242,-0.16298 3.46207,-0.44796 -6.02811,-1.22202 -10.54934,-6.51694 -10.54934,-12.91163 v -0.16286 c 1.75135,0.97754 3.78805,1.58848 5.94662,1.66985 -3.54358,-2.362419 -5.86512,-6.394689 -5.86512,-10.956549 0,-2.44379 0.65156,-4.68396 1.79209,-6.63905 6.47619,7.98319 16.21085,13.19661 27.12653,13.76693 -0.20361,-0.97753 -0.32584,-1.99569 -0.32584,-3.01398 0,-7.25013 5.86524,-13.15599 13.15599,-13.15599 3.78792,0 7.20925,1.58849 9.61241,4.15451 2.97324,-0.57019 5.82438,-1.66998 8.34978,-3.17697 -0.97767,3.05486 -3.05486,5.62089 -5.78375,7.25 2.64752,-0.28497 5.21355,-1.01829 7.57585,-2.03645 -1.79185,2.60665 -4.03215,4.92821 -6.59818,6.80192 z"
     id="path2-3"
     style="fill:#2aa3b4;fill-opacity:1;stroke-width:0.125374" />
  <path
     fill="currentColor"
     d="m 640.86956,313.51053 c 0.0408,0.57021 0.0408,1.14053 0.0408,1.71073 0,17.39187 -13.23736,37.4314 -37.43139,37.4314 -7.45373,0 -14.37789,-2.15882 -20.20238,-5.90587 1.05903,0.12211 2.07719,0.16286 3.17697,0.16286 6.15022,0 11.81186,-2.0772 16.33297,-5.62076 -5.78376,-0.12225 -10.63071,-3.91017 -12.30069,-9.12372 0.81468,0.12212 1.62923,0.20361 2.48466,0.20361 1.18115,0 2.36242,-0.16299 3.46208,-0.44796 -6.02811,-1.22202 -10.54935,-6.51694 -10.54935,-12.91163 v -0.16287 c 1.75135,0.97754 3.78805,1.58849 5.94662,1.66986 -3.54357,-2.36242 -5.86512,-6.3947 -5.86512,-10.95656 0,-2.44379 0.65157,-4.68396 1.7921,-6.63905 6.47618,7.98319 16.21084,13.19662 27.12653,13.76694 -0.20361,-0.97754 -0.32585,-1.9957 -0.32585,-3.01399 0,-7.25013 5.86524,-13.15599 13.15599,-13.15599 3.78792,0 7.20925,1.58849 9.61242,4.15452 2.97324,-0.5702 5.82437,-1.66999 8.34978,-3.17698 -0.97767,3.05486 -3.05487,5.62089 -5.78375,7.25 2.64751,-0.28497 5.21354,-1.01829 7.57584,-2.03645 -1.79184,2.60665 -4.03215,4.9282 -6.59818,6.80191 z"
     id="path2-6"
     style="fill:#2aa3b4;fill-opacity:1;stroke-width:0.125374" />
  <path
     fill="currentColor"
     d="m 701.7963,233.50468 c 0.0408,0.5702 0.0408,1.14052 0.0408,1.71072 0,17.39188 -13.23735,37.43142 -37.43138,37.43142 -7.45373,0 -14.37789,-2.15881 -20.20239,-5.90587 1.05904,0.12212 2.0772,0.16286 3.17698,0.16286 6.15022,0 11.81185,-2.07719 16.33297,-5.62076 -5.78376,-0.12224 -10.63071,-3.91017 -12.30069,-9.12373 0.81468,0.12212 1.62923,0.20361 2.48466,0.20361 1.18114,0 2.36242,-0.16298 3.46207,-0.44796 -6.0281,-1.22202 -10.54934,-6.51694 -10.54934,-12.91163 v -0.16287 c 1.75135,0.97755 3.78805,1.58849 5.94662,1.66986 -3.54357,-2.36243 -5.86512,-6.39471 -5.86512,-10.95656 0,-2.44379 0.65156,-4.68397 1.79209,-6.63905 6.47619,7.98319 16.21085,13.19661 27.12654,13.76693 -0.20362,-0.97754 -0.32585,-1.9957 -0.32585,-3.01399 0,-7.25012 5.86524,-13.15598 13.15599,-13.15598 3.78792,0 7.20925,1.58849 9.61241,4.15452 2.97325,-0.57021 5.82438,-1.66999 8.34979,-3.17698 -0.97767,3.05486 -3.05487,5.62089 -5.78375,7.25 2.64751,-0.28498 5.21354,-1.01829 7.57584,-2.03645 -1.79184,2.60665 -4.03215,4.9282 -6.59818,6.80191 z"
     id="path2-7"
     style="fill:#2aa3b4;fill-opacity:1;stroke-width:0.125374" />
  <path
     fill="currentColor"
     d="m 796.81531,66.637661 c 0.0408,0.5702 0.0408,1.14053 0.0408,1.71073 0,17.391869 -13.23736,37.431389 -37.43138,37.431389 -7.45373,0 -14.37789,-2.15881 -20.20238,-5.905865 1.05903,0.12211 2.07719,0.162865 3.17697,0.162865 6.15022,0 11.81185,-2.077205 16.33297,-5.62078 -5.78376,-0.12224 -10.63071,-3.91015 -12.30069,-9.1237 0.81468,0.12211 1.62923,0.20361 2.48466,0.20361 1.18115,0 2.36242,-0.16299 3.46207,-0.44797 -6.02814,-1.22201 -10.54938,-6.516929 -10.54938,-12.911629 v -0.16286 c 1.75135,0.97754 3.78805,1.58849 5.94662,1.66986 -3.54357,-2.36243 -5.86512,-6.3947 -5.86512,-10.95656 0,-2.44379 0.65157,-4.68397 1.7921,-6.63905 6.47618,7.98319 16.21084,13.19661 27.12653,13.76694 -0.20362,-0.97754 -0.32585,-1.99571 -0.32585,-3.01399 0,-7.25013 5.86524,-13.15599 13.15598,-13.15599 3.78793,0 7.20926,1.58849 9.61242,4.15451 2.97324,-0.5702 5.82437,-1.66998 8.34978,-3.17697 -0.97767,3.05486 -3.05486,5.62089 -5.78375,7.25 2.64752,-0.28498 5.21355,-1.01829 7.57585,-2.03645 -1.79185,2.60665 -4.03215,4.9282 -6.59818,6.80191 z"
     id="path2-75"
     style="fill:#2aa3b4;fill-opacity:1;stroke-width:0.125374" />
  <path
     fill="currentColor"
     d="m 580.60783,104.51837 c 0.0408,0.5702 0.0408,1.14053 0.0408,1.71073 0,17.39188 -13.23736,37.43139 -37.43138,37.43139 -7.45373,0 -14.37789,-2.15881 -20.20238,-5.90586 1.05903,0.12211 2.07719,0.16286 3.17697,0.16286 6.15022,0 11.81185,-2.07719 16.33297,-5.62076 -5.78376,-0.12224 -10.63071,-3.91016 -12.30069,-9.12371 0.81468,0.12211 1.62923,0.20361 2.48466,0.20361 1.18115,0 2.36242,-0.16299 3.46207,-0.44797 -6.02814,-1.22201 -10.54938,-6.51693 -10.54938,-12.91164 v -0.16286 c 1.75135,0.97754 3.78805,1.58849 5.94662,1.66986 -3.54357,-2.36243 -5.86512,-6.3947 -5.86512,-10.95656 0,-2.443795 0.65157,-4.683975 1.7921,-6.639055 6.47618,7.983195 16.21084,13.196615 27.12653,13.766945 -0.20362,-0.97754 -0.32585,-1.99571 -0.32585,-3.01399 0,-7.250135 5.86524,-13.155995 13.15598,-13.155995 3.78793,0 7.20926,1.58849 9.61242,4.15451 2.97324,-0.5702 5.82437,-1.66998 8.34978,-3.17697 -0.97767,3.05486 -3.05486,5.62089 -5.78375,7.25 2.64752,-0.28498 5.21355,-1.01829 7.57585,-2.03645 -1.79185,2.606655 -4.03215,4.928205 -6.59818,6.801915 z"
     id="path2-9"
     style="fill:#2aa3b4;fill-opacity:1;stroke-width:0.125374" />
  <path
     fill="currentColor"
     d="m 488.28354,133.13901 c 0.0408,0.5702 0.0408,1.14053 0.0408,1.71073 0,17.39187 -13.23736,37.43139 -37.43138,37.43139 -7.45373,0 -14.37789,-2.15881 -20.20238,-5.90586 1.05903,0.12211 2.07719,0.16286 3.17697,0.16286 6.15022,0 11.81185,-2.0772 16.33297,-5.62077 -5.78376,-0.12224 -10.63071,-3.91016 -12.30069,-9.12371 0.81468,0.12211 1.62923,0.20361 2.48466,0.20361 1.18115,0 2.36242,-0.16299 3.46207,-0.44797 -6.02814,-1.22201 -10.54938,-6.51693 -10.54938,-12.91163 v -0.16286 c 1.75135,0.97754 3.78805,1.58849 5.94662,1.66986 -3.54357,-2.36243 -5.86512,-6.3947 -5.86512,-10.95656 0,-2.44379 0.65157,-4.68397 1.7921,-6.63905 6.47618,7.98319 16.21084,13.19661 27.12653,13.76694 -0.20362,-0.97754 -0.32585,-1.99571 -0.32585,-3.01399 0,-7.25013 5.86524,-13.15599 13.15598,-13.15599 3.78793,0 7.20926,1.58849 9.61242,4.15451 2.97324,-0.5702 5.82437,-1.66998 8.34978,-3.17697 -0.97767,3.05486 -3.05486,5.62089 -5.78375,7.25 2.64752,-0.28498 5.21355,-1.01829 7.57585,-2.03645 -1.79185,2.60665 -4.03215,4.9282 -6.59818,6.80191 z"
     id="path2-9-1"
     style="fill:#2aa3b4;fill-opacity:1;stroke-width:0.125374" />
  <path
     fill="currentColor"
     d="m 567.32183,400.88902 c 0.0408,0.57021 0.0408,1.14053 0.0408,1.71073 0,17.39187 -13.23736,37.4314 -37.43139,37.4314 -7.45373,0 -14.37789,-2.15882 -20.20238,-5.90587 1.05903,0.12211 2.07719,0.16286 3.17697,0.16286 6.15022,0 11.81186,-2.0772 16.33297,-5.62076 -5.78376,-0.12225 -10.63071,-3.91017 -12.30069,-9.12372 0.81468,0.12212 1.62923,0.20361 2.48466,0.20361 1.18115,0 2.36242,-0.16299 3.46208,-0.44796 -6.02811,-1.22202 -10.54935,-6.51694 -10.54935,-12.91163 v -0.16287 c 1.75135,0.97754 3.78805,1.58849 5.94662,1.66986 -3.54357,-2.36242 -5.86512,-6.3947 -5.86512,-10.95656 0,-2.44379 0.65157,-4.68396 1.7921,-6.63905 6.47618,7.98319 16.21084,13.19662 27.12653,13.76694 -0.20361,-0.97754 -0.32585,-1.9957 -0.32585,-3.01399 0,-7.25013 5.86524,-13.15599 13.15599,-13.15599 3.78792,0 7.20925,1.58849 9.61242,4.15452 2.97324,-0.5702 5.82437,-1.66999 8.34978,-3.17698 -0.97767,3.05486 -3.05487,5.62089 -5.78375,7.25 2.64751,-0.28497 5.21354,-1.01829 7.57584,-2.03645 -1.79184,2.60665 -4.03215,4.9282 -6.59818,6.80191 z"
     id="path2-6-3"
     style="fill:#2aa3b4;fill-opacity:1;stroke-width:0.125374" />
  <path
     fill="currentColor"
     d="m 378.69452,167.98741 c 0.0408,0.57021 0.0408,1.14053 0.0408,1.71073 0,17.39187 -13.23736,37.4314 -37.43139,37.4314 -7.45373,0 -14.37789,-2.15882 -20.20238,-5.90587 1.05903,0.12211 2.07719,0.16286 3.17697,0.16286 6.15022,0 11.81186,-2.0772 16.33297,-5.62076 -5.78376,-0.12225 -10.63071,-3.91017 -12.30069,-9.12372 0.81468,0.12212 1.62923,0.20361 2.48466,0.20361 1.18115,0 2.36242,-0.16299 3.46208,-0.44796 -6.02811,-1.22202 -10.54935,-6.51694 -10.54935,-12.91163 v -0.16287 c 1.75135,0.97754 3.78805,1.58849 5.94662,1.66986 -3.54357,-2.36242 -5.86512,-6.3947 -5.86512,-10.95656 0,-2.44379 0.65157,-4.68396 1.7921,-6.63905 6.47618,7.98319 16.21084,13.19662 27.12653,13.76694 -0.20361,-0.97754 -0.32585,-1.9957 -0.32585,-3.01399 0,-7.25013 5.86524,-13.15599 13.15599,-13.15599 3.78792,0 7.20925,1.58849 9.61242,4.15452 2.97324,-0.5702 5.82437,-1.66999 8.34978,-3.17698 -0.97767,3.05486 -3.05487,5.62089 -5.78375,7.25 2.64751,-0.28497 5.21354,-1.01829 7.57584,-2.03645 -1.79184,2.60665 -4.03215,4.9282 -6.59818,6.80191 z"
     id="path2-6-6"
     style="fill:#2aa3b4;fill-opacity:1;stroke-width:0.125374" />
</svg>
